# xmcd
# 
# Track frame offsets:
#     150
#     20030
#     42600
#     61923
#     80355
#     103423
#     122385
#     142930
#     162860
#     181933
# 
# Disc length: 2661
# 
# Revision: 4
# Processed by: cddbd v1.5.2PL0 Copyright (c) Steve Scherf et al.
# Submitted via: fre:ac v1.0.31
# 
DISCID=810a630a
DTITLE=Khánh Ly - Ca Khúc Da Vàng - Trịnh Công Sơn - Khánh Ly - Khánh Ly Enterprise
DYEAR=1995
DGENRE=Pop
TTITLE0=Gia Tài Của Mẹ - Trịnh Công Sơn
TTITLE1=Du Mục - Trịnh Công Sơn
TTITLE2=Hát Trên Những Xác Người - Trịnh Công Sơn
TTITLE3=Người Con Gái Việt Nam Da Vàng - Trịnh Công Sơn
TTITLE4=Người Già Em Bé - Trịnh Công Sơn
TTITLE5=Huế Sài Gòn Hà Nội - Trịnh Công Sơn
TTITLE6=Lại Gần Với Nhau - Trịnh Công Sơn
TTITLE7=Chờ Nhìn Quê Hương Sáng Chói - Trịnh Công Sơn
TTITLE8=Giọt Nước Mắt Cho Quê Hương - Trịnh Công Sơn
TTITLE9=Tôi Sẽ Đi Thăm - Trịnh Công Sơn
EXTD=YEAR: 1998 ID3G: 80
EXTT0=
EXTT1=
EXTT2=
EXTT3=
EXTT4=
EXTT5=
EXTT6=
EXTT7=
EXTT8=
EXTT9=
PLAYORDER=
